<svg id="Layer_1" data-name="Layer 1" xmlns="http://www.w3.org/2000/svg" viewBox="0 0 32 32"><path id="Eco_Material_Icon" data-name="Eco Material Icon" d="M16,0h0A16,16,0,0,0,3.5,26L0,29.49,2.51,32,6,28.5A16,16,0,0,0,32,16V0ZM28.44,16A12.44,12.44,0,0,1,3.56,16h0A12.17,12.17,0,0,1,7.29,7.13,12.31,12.31,0,0,1,16,3.56H28.44ZM9.71,17.12l7.2.71-4.34,5.92a.73.73,0,0,0,.07.92.72.72,0,0,0,1,0l9.17-8.23a.92.92,0,0,0,.06-1.29.9.9,0,0,0-.6-.29l-7.19-.71,4.33-5.92a.71.71,0,0,0-.15-1,.7.7,0,0,0-.91.06L9.17,15.54a.92.92,0,0,0,0,1.3A1,1,0,0,0,9.71,17.12Z" style="fill:#a0a0a0;fill-rule:evenodd"/></svg>