<svg id="Layer_1" data-name="Layer 1" xmlns="http://www.w3.org/2000/svg" viewBox="0 0 24 24"><path id="Thermostat_Outline" data-name="Thermostat Outline" d="M18,2.33A3.69,3.69,0,0,1,21.67,6V18A3.69,3.69,0,0,1,18,21.67H6A3.69,3.69,0,0,1,2.33,18V6A3.69,3.69,0,0,1,6,2.33H18M18,0H6A6,6,0,0,0,0,6V18a6,6,0,0,0,6,6H18a6,6,0,0,0,6-6V6a6,6,0,0,0-6-6Z" style="fill:#a0a0a0;fill-rule:evenodd"/><path id="_72" data-name=" 72" d="M6.24,8.53H7V7.66H6.24Zm1.47,6.94h.73V14.6H7.71Zm0-1.74h.73v-.86H7.71v.86ZM9.18,12h.73v-.87H9.18V12Zm1.46-1.74h.74V9.39h-.74v.87Zm0-1.73h.74V7.66h-.74v.87Zm-1.46,0h.73V7.66H9.18v.87Zm-1.47,0h.73V7.66H7.71Zm5.12,0h.73V7.66h-.73Zm4.4,6.94H18V14.6h-.73v.87Zm-1.47,0h.74V14.6h-.74v.87Zm-1.47,0H15V14.6H14.3v.87Zm-1.46,0h.73V14.6h-.73v.87Zm0-1.74h.73v-.86h-.73v.86ZM15.76,12h.73v-.87h-.73V12Zm-1.47,0H15v-.87H14.3V12Zm2.94-1.74H18V9.39h-.73v.87ZM15.76,8.53h.73V7.66h-.73v.87Zm-1.47,0H15V7.66H14.3v.87Z" style="fill:#a0a0a0;fill-rule:evenodd"/><path id="_72-2" data-name=" 72-2" d="M6.24,8.53H7V7.66H6.24Zm1.47,6.94h.73V14.6H7.71Zm0-1.74h.73v-.86H7.71v.86ZM9.18,12h.73v-.87H9.18V12Zm1.46-1.74h.74V9.39h-.74v.87Zm0-1.73h.74V7.66h-.74v.87Zm-1.46,0h.73V7.66H9.18v.87Zm-1.47,0h.73V7.66H7.71Zm5.12,0h.73V7.66h-.73Zm4.4,6.94H18V14.6h-.73v.87Zm-1.47,0h.74V14.6h-.74v.87Zm-1.47,0H15V14.6H14.3v.87Zm-1.46,0h.73V14.6h-.73v.87Zm0-1.74h.73v-.86h-.73v.86ZM15.76,12h.73v-.87h-.73V12Zm-1.47,0H15v-.87H14.3V12Zm2.94-1.74H18V9.39h-.73v.87ZM15.76,8.53h.73V7.66h-.73v.87Zm-1.47,0H15V7.66H14.3v.87Z" style="fill:#a0a0a0;fill-rule:evenodd"/><path id="_72-3" data-name=" 72-3" d="M6.24,8.53H7V7.66H6.24Zm1.47,6.94h.73V14.6H7.71Zm0-1.74h.73v-.86H7.71v.86ZM9.18,12h.73v-.87H9.18V12Zm1.46-1.74h.74V9.39h-.74v.87Zm0-1.73h.74V7.66h-.74v.87Zm-1.46,0h.73V7.66H9.18v.87Zm-1.47,0h.73V7.66H7.71Zm5.12,0h.73V7.66h-.73Zm4.4,6.94H18V14.6h-.73v.87Zm-1.47,0h.74V14.6h-.74v.87Zm-1.47,0H15V14.6H14.3v.87Zm-1.46,0h.73V14.6h-.73v.87Zm0-1.74h.73v-.86h-.73v.86ZM15.76,12h.73v-.87h-.73V12Zm-1.47,0H15v-.87H14.3V12Zm2.94-1.74H18V9.39h-.73v.87ZM15.76,8.53h.73V7.66h-.73v.87Zm-1.47,0H15V7.66H14.3v.87Z" style="fill:#a0a0a0;fill-rule:evenodd"/></svg>