<svg id="Layer_1" data-name="Layer 1" xmlns="http://www.w3.org/2000/svg" viewBox="0 0 24 24"><path id="DR_Icon" data-name="DR Icon" d="M16.32,10a.54.54,0,0,0-.48-.28h-2l1.35-4.61a.51.51,0,0,0-.09-.49.58.58,0,0,0-.45-.22H9.43a.56.56,0,0,0-.56.5l-.73,7.82a.51.51,0,0,0,.15.43.56.56,0,0,0,.41.18h1.74l-1,6.37a.58.58,0,0,0,.35.62.43.43,0,0,0,.19,0,.59.59,0,0,0,.49-.26l5.85-9.5a.64.64,0,0,0,0-.6ZM12,24a12,12,0,1,1,8.49-3.52A12,12,0,0,1,12,24ZM12,1.6A10.4,10.4,0,1,0,22.4,12h0A10.42,10.42,0,0,0,12,1.6Z" style="fill:#fff;fill-rule:evenodd"/></svg>