<svg id="Layer_1" data-name="Layer 1" xmlns="http://www.w3.org/2000/svg" viewBox="0 0 24 24"><path id="Hot_Icon" data-name="Hot Icon" d="M23.66,11.37,19.77,8.78l.91-4.59a.75.75,0,0,0-.88-.89l-4.59.92L12.62.33a.75.75,0,0,0-1-.2.8.8,0,0,0-.21.2L8.78,4.22,4.19,3.3a.76.76,0,0,0-.89.89l.92,4.59L.33,11.37a.76.76,0,0,0-.2,1.05.64.64,0,0,0,.2.2l3.9,2.59-.93,4.6a.75.75,0,0,0,.59.88.76.76,0,0,0,.3,0l4.59-.91,2.59,3.89h0a.76.76,0,0,0,1.05.2.64.64,0,0,0,.2-.2l2.6-3.89,4.59.91h0a.75.75,0,0,0,.88-.58.81.81,0,0,0,0-.31l-.91-4.59,3.89-2.59h0a.75.75,0,0,0,.2-1,.8.8,0,0,0-.2-.21ZM12,19.5a7.51,7.51,0,1,1,5.3-2.2A7.5,7.5,0,0,1,12,19.5ZM18,12a6,6,0,1,1-6-6h0a6,6,0,0,1,6,6" style="fill:#fff;fill-rule:evenodd"/></svg>