<svg id="Layer_1" data-name="Layer 1" xmlns="http://www.w3.org/2000/svg" viewBox="0 0 32 32"><path id="Electricity_Icon" data-name="Electricity Icon" d="M24,0H8A8,8,0,0,0,0,8H0V24a8,8,0,0,0,8,8H9.6a1.6,1.6,0,0,0,.25-3.2H8A4.8,4.8,0,0,1,3.2,24V8A4.8,4.8,0,0,1,8,3.2H24A4.79,4.79,0,0,1,28.78,8h0V24A4.79,4.79,0,0,1,24,28.79h-1.6a4.8,4.8,0,0,1-4.8-4.8v-.15A8,8,0,0,0,24,16V12.8a1.61,1.61,0,0,0-1.6-1.61h-1.6V8a1.6,1.6,0,0,0-3.2,0v3.2H14.4V8a1.6,1.6,0,0,0-3.2,0v3.2H9.6A1.6,1.6,0,0,0,8,12.8V16a8,8,0,0,0,6.4,7.84V24a8,8,0,0,0,8,8H24a8,8,0,0,0,8-8V8a8,8,0,0,0-8-8ZM11.2,16v-1.6h9.59V16a4.8,4.8,0,1,1-9.59.15Z" style="fill:#a0a0a0;fill-rule:evenodd"/></svg>