<svg id="Layer_1" data-name="Layer 1" xmlns="http://www.w3.org/2000/svg" viewBox="0 0 32 32"><path id="Demand_Genius_Icon" data-name="Demand Genius Icon" d="M17,0A12.1,12.1,0,0,0,4.88,12.1v.75L3,18.47a1.39,1.39,0,0,0,1.33,1.85h.55v3.47a3.35,3.35,0,0,0,3.34,3.35h2.49V30.6a1.4,1.4,0,0,0,1.4,1.4H23.78a1.4,1.4,0,0,0,1.4-1.4V23.78a7.86,7.86,0,0,1,1.47-3.89,14.21,14.21,0,0,0,2.42-7.78A12.12,12.12,0,0,0,17,0ZM12.11,24.32H8.22a.54.54,0,0,1-.54-.54V18.92a1.41,1.41,0,0,0-1.41-1.41h0l1.33-4a1.31,1.31,0,0,0,.07-.44v-1a9.3,9.3,0,0,1,18.6,0,11.7,11.7,0,0,1-2.05,6.37h0a10.23,10.23,0,0,0-1.85,5.31v5.4H13.51V25.72A1.4,1.4,0,0,0,12.11,24.32ZM16.94,6a4.85,4.85,0,0,0-4.86,4.87,6.69,6.69,0,0,0,1.27,3.35,4.06,4.06,0,0,1,.71,1.5v1a2.92,2.92,0,0,0,5.84,0h0v-1a4,4,0,0,1,.67-1.44,6.27,6.27,0,0,0,1.24-3.41A4.85,4.85,0,0,0,17,6h0ZM14,10.88a2.83,2.83,0,0,1,.81-2,2.93,2.93,0,0,1,5,2.06,4.85,4.85,0,0,1-.95,2.36,8.77,8.77,0,0,0-.79,1.52h-2.3A9.14,9.14,0,0,0,15,13.25a5,5,0,0,1-1-2.37ZM17,17.71a1,1,0,0,1-1-1h1.94a1,1,0,0,1-1,1Z" style="fill:#a0a0a0;fill-rule:evenodd"/></svg>