<svg id="Layer_1" data-name="Layer 1" xmlns="http://www.w3.org/2000/svg" viewBox="0 0 24 24"><path id="Electricity_Icon" data-name="Electricity Icon" d="M18,0H6A6,6,0,0,0,0,6H0V18a6,6,0,0,0,6,6H7.2a1.2,1.2,0,1,0,.19-2.39.6.6,0,0,0-.19,0H6A3.61,3.61,0,0,1,2.4,18V6A3.6,3.6,0,0,1,6,2.4H18A3.59,3.59,0,0,1,21.58,6h0V18A3.6,3.6,0,0,1,18,21.6h-1.2a3.61,3.61,0,0,1-3.6-3.6v-.12A6,6,0,0,0,18,12V9.6a1.21,1.21,0,0,0-1.2-1.21h-1.2V6a1.2,1.2,0,0,0-1.28-1.11A1.22,1.22,0,0,0,13.19,6v2.4H10.8V6A1.2,1.2,0,0,0,8.4,6v2.4H7.2A1.2,1.2,0,0,0,6,9.6V12a6,6,0,0,0,4.79,5.88V18a6,6,0,0,0,6,6H18a6,6,0,0,0,6-6V6a6,6,0,0,0-6-6ZM8.4,12V10.79h7.19V12a3.6,3.6,0,1,1-7.19.1Z" style="fill:#a0a0a0;fill-rule:evenodd"/></svg>