<svg id="Layer_1" data-name="Layer 1" xmlns="http://www.w3.org/2000/svg" viewBox="0 0 24 24"><path id="Eco_Material_Icon" data-name="Eco Material Icon" d="M12,0h0A12,12,0,0,0,2.63,19.48L0,22.12,1.88,24l2.63-2.63A12,12,0,0,0,24,12V0Zm9.33,12A9.33,9.33,0,0,1,2.67,12h0a9.11,9.11,0,0,1,2.8-6.65A9.17,9.17,0,0,1,12,2.67h9.33Zm-14,.84,5.4.53L9.43,17.81a.56.56,0,0,0,.05.7.54.54,0,0,0,.75,0l6.88-6.17a.68.68,0,0,0,0-1,.63.63,0,0,0-.44-.22l-5.4-.53,3.25-4.44a.54.54,0,0,0-.8-.71L6.88,11.65a.69.69,0,0,0,0,1A.7.7,0,0,0,7.28,12.84Z" style="fill:#a0a0a0;fill-rule:evenodd"/></svg>