<svg id="Layer_1" data-name="Layer 1" xmlns="http://www.w3.org/2000/svg" viewBox="0 0 24 24"><path id="Demand_Genius_Icon" data-name="Demand Genius Icon" d="M12.73,0A9.08,9.08,0,0,0,3.66,9.08v.56L2.25,13.85a1.07,1.07,0,0,0,.66,1.34,1.27,1.27,0,0,0,.34.05h.41v2.6a2.51,2.51,0,0,0,2.51,2.51H8V23A1.06,1.06,0,0,0,9.09,24h8.74A1.05,1.05,0,0,0,18.89,23V17.84A5.79,5.79,0,0,1,20,14.92,10.6,10.6,0,0,0,21.8,9.08,9.08,9.08,0,0,0,12.73,0ZM9.08,18.24H6.17a.41.41,0,0,1-.41-.41V14.19a1.05,1.05,0,0,0-1-1.06h0l1-3a1,1,0,0,0,0-.33V9.08a7,7,0,1,1,14,0,8.75,8.75,0,0,1-1.54,4.77h0a7.69,7.69,0,0,0-1.38,4v4.06H10.13v-2.6A1,1,0,0,0,9.08,18.24ZM12.71,4.53A3.62,3.62,0,0,0,9.06,8.19,5,5,0,0,0,10,10.7a2.91,2.91,0,0,1,.54,1.12v.73a2.19,2.19,0,1,0,4.37,0h0v-.76a3.11,3.11,0,0,1,.51-1.07,4.83,4.83,0,0,0,.93-2.56,3.64,3.64,0,0,0-3.65-3.63ZM10.52,8.16a2.13,2.13,0,0,1,.61-1.52A2.2,2.2,0,0,1,14.9,8.19,3.63,3.63,0,0,1,14.18,10a6.83,6.83,0,0,0-.59,1.14H11.86a5.58,5.58,0,0,0-.61-1.16,3.84,3.84,0,0,1-.73-1.78Zm2.21,5.12a.72.72,0,0,1-.73-.72h1.46a.73.73,0,0,1-.73.73Z" style="fill:#a0a0a0;fill-rule:evenodd"/></svg>