<svg id="Layer_1" data-name="Layer 1" xmlns="http://www.w3.org/2000/svg" viewBox="0 0 32 32"><path id="Thermostat_Outline" data-name="Thermostat Outline" d="M24,3.11A4.9,4.9,0,0,1,28.89,8V24A4.9,4.9,0,0,1,24,28.89H8A4.9,4.9,0,0,1,3.11,24V8A4.9,4.9,0,0,1,8,3.11H24M24,0H8A8,8,0,0,0,0,8V24a8,8,0,0,0,8,8H24a8,8,0,0,0,8-8V8a8,8,0,0,0-8-8Z" style="fill:#a0a0a0;fill-rule:evenodd"/><path id="_72" data-name=" 72" d="M8.32,11.37h1V10.21h-1Zm2,9.26h1V19.47h-1Zm0-2.32h1V17.16h-1v1.15Zm2-2.31h1V14.84h-1V16Zm2-2.32h1V12.53h-1v1.15Zm0-2.31h1V10.21h-1v1.16Zm-2,0h1V10.21h-1v1.16Zm-2,0h1V10.21h-1Zm6.82,0h1V10.21h-1ZM23,20.63h1V19.47H23v1.16Zm-1.95,0h1V19.47H21v1.16Zm-2,0h1V19.47h-1v1.16Zm-2,0h1V19.47h-1v1.16Zm0-2.32h1V17.16h-1v1.15ZM21,16h1V14.84H21V16Zm-2,0h1V14.84h-1V16ZM23,13.68h1V12.53H23v1.15Zm-2-2.31h1V10.21H21v1.16Zm-2,0h1V10.21h-1v1.16Z" style="fill:#a0a0a0;fill-rule:evenodd"/><path id="_72-2" data-name=" 72-2" d="M8.32,11.37h1V10.21h-1Zm2,9.26h1V19.47h-1Zm0-2.32h1V17.16h-1v1.15Zm2-2.31h1V14.84h-1V16Zm2-2.32h1V12.53h-1v1.15Zm0-2.31h1V10.21h-1v1.16Zm-2,0h1V10.21h-1v1.16Zm-2,0h1V10.21h-1Zm6.82,0h1V10.21h-1ZM23,20.63h1V19.47H23v1.16Zm-1.95,0h1V19.47H21v1.16Zm-2,0h1V19.47h-1v1.16Zm-2,0h1V19.47h-1v1.16Zm0-2.32h1V17.16h-1v1.15ZM21,16h1V14.84H21V16Zm-2,0h1V14.84h-1V16ZM23,13.68h1V12.53H23v1.15Zm-2-2.31h1V10.21H21v1.16Zm-2,0h1V10.21h-1v1.16Z" style="fill:#a0a0a0;fill-rule:evenodd"/><path id="_72-3" data-name=" 72-3" d="M8.32,11.37h1V10.21h-1Zm2,9.26h1V19.47h-1Zm0-2.32h1V17.16h-1v1.15Zm2-2.31h1V14.84h-1V16Zm2-2.32h1V12.53h-1v1.15Zm0-2.31h1V10.21h-1v1.16Zm-2,0h1V10.21h-1v1.16Zm-2,0h1V10.21h-1Zm6.82,0h1V10.21h-1ZM23,20.63h1V19.47H23v1.16Zm-1.95,0h1V19.47H21v1.16Zm-2,0h1V19.47h-1v1.16Zm-2,0h1V19.47h-1v1.16Zm0-2.32h1V17.16h-1v1.15ZM21,16h1V14.84H21V16Zm-2,0h1V14.84h-1V16ZM23,13.68h1V12.53H23v1.15Zm-2-2.31h1V10.21H21v1.16Zm-2,0h1V10.21h-1v1.16Z" style="fill:#a0a0a0;fill-rule:evenodd"/></svg>