<svg id="Layer_1" data-name="Layer 1" xmlns="http://www.w3.org/2000/svg" viewBox="0 0 24 24"><path d="M4.24,4.17h-4c-.21,0-.24,0-.24.22a7.91,7.91,0,0,0,3.4,7A7.25,7.25,0,0,0,6,12.52c.52.11,1.06.15,1.6.23.1,0,.18,0,.18-.14a1.46,1.46,0,0,0-.5-1.17,2.29,2.29,0,0,0-1-.37A6.08,6.08,0,0,1,3.92,9.89,6.45,6.45,0,0,1,2.08,7.55a7.91,7.91,0,0,1-.54-1.71c0-.16,0-.2.21-.2H7.89a6.38,6.38,0,0,1,6.21,5.08,6.35,6.35,0,0,1,.07,2.13A7,7,0,0,1,13.45,15a5.86,5.86,0,0,1-1.15,1.52c.35.23.7.46,1.06.68s.27.13.43-.07a15.57,15.57,0,0,0,.91-1.27,7.82,7.82,0,0,0-3.55-11,7.79,7.79,0,0,0-3.22-.71ZM19.58,19.82v0h4.34a.06.06,0,0,0,.06-.06,8.14,8.14,0,0,0-.67-3.9A7.66,7.66,0,0,0,21.09,13a8,8,0,0,0-4.9-1.77,1.42,1.42,0,0,0,1.23,1.63,6.73,6.73,0,0,1,1.4.45A6.08,6.08,0,0,1,21,14.94a5.48,5.48,0,0,1,.93,1.46c.21.53.36,1.08.53,1.62.09.29,0,.34-.25.34h-6a6.43,6.43,0,0,1-2.52-.49A6.42,6.42,0,0,1,9.86,13a6.24,6.24,0,0,1,.35-3.34,5.6,5.6,0,0,1,1.3-2c.1-.11.12-.2,0-.29l-1-.61a.21.21,0,0,0-.28.06A8.12,8.12,0,0,0,8.54,10a8,8,0,0,0-.22,2.62,7.54,7.54,0,0,0,.92,3.18,8.28,8.28,0,0,0,2,2.4A7.78,7.78,0,0,0,14,19.55a7.38,7.38,0,0,0,2,.27Zm-8-.88a2.68,2.68,0,0,0-.24-.21,6.43,6.43,0,0,1-.76-.62A.44.44,0,0,0,10,18a6.93,6.93,0,0,1-2.39.39l-5.81,0c-.3,0-.3,0-.3-.28,0-1.72,0-3.44,0-5.16a2.38,2.38,0,0,0-.07-.59,1.43,1.43,0,0,0-1.12-1c-.23-.05-.29,0-.3.22,0,2.6,0,5.19,0,7.78,0,.57-.09.54.54.54H7.08a9.34,9.34,0,0,0,3.48-.47ZM12.5,5.07c.37.31.71.58,1,.86a.35.35,0,0,0,.4.07,14.24,14.24,0,0,1,1.47-.33,10.21,10.21,0,0,1,1.24,0H22.2c.27,0,.28,0,.28.27,0,1.5,0,3,0,4.5,0,.36,0,.72,0,1.07a1.31,1.31,0,0,0,.91,1.12c.37.11.55.13.55-.08s0-.14,0-.21V9.7c0-1.76,0-3.52,0-5.29,0-.25,0-.26-.26-.26l-7.6,0a7.55,7.55,0,0,0-3.27.7Z" style="fill:#fff"/><path d="M4.24,4.17H7.93a7.79,7.79,0,0,1,3.22.71,7.82,7.82,0,0,1,3.55,11,15.57,15.57,0,0,1-.91,1.27c-.16.2-.2.2-.43.07s-.71-.45-1.06-.68A5.86,5.86,0,0,0,13.45,15a7,7,0,0,0,.72-2.18,6.35,6.35,0,0,0-.07-2.13A6.38,6.38,0,0,0,7.89,5.63H1.75c-.2,0-.24,0-.21.2a7.91,7.91,0,0,0,.54,1.71A6.45,6.45,0,0,0,3.92,9.89a6.08,6.08,0,0,0,2.42,1.18,2.29,2.29,0,0,1,1,.37,1.46,1.46,0,0,1,.5,1.17c0,.11-.08.15-.18.14-.54-.08-1.08-.12-1.6-.23a7.25,7.25,0,0,1-2.63-1.17,7.91,7.91,0,0,1-3.4-7c0-.2,0-.22.24-.22h4Z" style="fill:#fff"/><path d="M19.58,19.82H16.05a7.38,7.38,0,0,1-2-.27,7.78,7.78,0,0,1-2.72-1.38,8.28,8.28,0,0,1-2-2.4,7.54,7.54,0,0,1-.92-3.18A8,8,0,0,1,8.54,10a8.12,8.12,0,0,1,1.72-3.19.21.21,0,0,1,.28-.06l1,.61c.13.09.11.18,0,.29a5.6,5.6,0,0,0-1.3,2.05,6.39,6.39,0,0,0,1,6.38,6.24,6.24,0,0,0,2.43,1.82,6.43,6.43,0,0,0,2.52.49h6c.3,0,.34-.05.25-.34-.17-.54-.32-1.09-.53-1.62A5.48,5.48,0,0,0,21,14.94a6.08,6.08,0,0,0-2.14-1.62,6.73,6.73,0,0,0-1.4-.45,1.42,1.42,0,0,1-1.23-1.63A8,8,0,0,1,21.09,13a7.66,7.66,0,0,1,2.22,2.88,8.14,8.14,0,0,1,.67,3.9.06.06,0,0,1-.06.06H19.58Z" style="fill:#fff"/><path d="M11.55,18.94l-1,.42a9.34,9.34,0,0,1-3.48.47H.56c-.63,0-.54,0-.54-.54,0-2.59,0-5.18,0-7.78,0-.23.07-.27.3-.22a1.43,1.43,0,0,1,1.12,1,2.38,2.38,0,0,1,.07.59c0,1.72,0,3.44,0,5.16,0,.28,0,.28.3.28l5.81,0A6.93,6.93,0,0,0,10,18a.44.44,0,0,1,.53.13,6.43,6.43,0,0,0,.76.62A2.68,2.68,0,0,1,11.55,18.94Z" style="fill:#fff"/><path d="M12.5,5.07l.35-.2a7.55,7.55,0,0,1,3.27-.7l7.6,0c.24,0,.26,0,.26.26,0,1.77,0,3.53,0,5.29v2.61a1.16,1.16,0,0,0,0,.37,1.4,1.4,0,0,1-1.48-1.21c0-.35,0-.7,0-1.06,0-1.5,0-3,0-4.5,0-.27,0-.27-.28-.27H16.64a10.21,10.21,0,0,0-1.24,0A14.24,14.24,0,0,0,13.93,6a.35.35,0,0,1-.4-.07C13.21,5.65,12.87,5.38,12.5,5.07Z" style="fill:#fff"/></svg>